<?xml version="1.0" encoding="utf-8"?>
<!-- Generator: Adobe Illustrator 26.5.0, SVG Export Plug-In . SVG Version: 6.00 Build 0)  -->
<svg version="1.1" id="Layer_1" xmlns="http://www.w3.org/2000/svg" xmlns:xlink="http://www.w3.org/1999/xlink" x="0px" y="0px"
	 viewBox="0 0 400 400" style="enable-background:new 0 0 400 400;" xml:space="preserve">
<style type="text/css">
	.st0{fill:url(#SVGID_1_);}
	.st1{fill:url(#SVGID_00000044884689292639899080000001736726442203751303_);}
	.st2{fill:url(#SVGID_00000036241930763347678840000002807643783366231710_);}
	.st3{fill:url(#SVGID_00000018952915289653071450000000841692554535561119_);}
</style>
<linearGradient id="SVGID_1_" gradientUnits="userSpaceOnUse" x1="218.9129" y1="201.137" x2="373.7538" y2="201.137" gradientTransform="matrix(0.9995 0.032 -0.032 0.9995 5.886 -7.9031)">
	<stop  offset="0" style="stop-color:#FFF33B"/>
	<stop  offset="0.0595" style="stop-color:#FFE029"/>
	<stop  offset="0.1303" style="stop-color:#FFD217"/>
	<stop  offset="0.2032" style="stop-color:#FEC90E"/>
	<stop  offset="0.2809" style="stop-color:#FDC70C"/>
	<stop  offset="0.6685" style="stop-color:#F3903F"/>
	<stop  offset="0.8876" style="stop-color:#ED683C"/>
	<stop  offset="1" style="stop-color:#E93E3A"/>
</linearGradient>
<path class="st0" d="M222.86,56.05c0,0,8.1,49.64,49.14,87.19s79.8,139.18,30.47,203.8c0,0,82.96-41.65,66.68-104.64
	S234.33,95.46,222.86,56.05z"/>
<radialGradient id="SVGID_00000134251427158044945690000000214988985709969834_" cx="279.7344" cy="201.137" r="140.1452" gradientTransform="matrix(0.9995 0.032 -0.032 0.9995 5.886 -7.9031)" gradientUnits="userSpaceOnUse">
	<stop  offset="0.0106" style="stop-color:#FFF33B"/>
	<stop  offset="0.1067" style="stop-color:#FFE029"/>
	<stop  offset="0.221" style="stop-color:#FFD217"/>
	<stop  offset="0.3387" style="stop-color:#FEC90E"/>
	<stop  offset="0.4642" style="stop-color:#FDC70C"/>
	<stop  offset="0.7482" style="stop-color:#F3903F"/>
	<stop  offset="0.9505" style="stop-color:#ED683C"/>
	<stop  offset="1" style="stop-color:#E93E3A"/>
</radialGradient>
<path style="fill:url(#SVGID_00000134251427158044945690000000214988985709969834_);" d="M222.86,56.05c0,0,5.9,19.06,19.77,41.05
	c21.03,33.34,53.72,72.02,84.36,115.75c38.61,55.1-24.52,134.2-24.52,134.2S338.94,279,320.18,241.7
	C293.94,189.49,208.91,82.61,222.86,56.05z"/>
<linearGradient id="SVGID_00000168075332577974193680000012736702203243361161_" gradientUnits="userSpaceOnUse" x1="65.218" y1="200" x2="316.1709" y2="200">
	<stop  offset="0" style="stop-color:#FFF33B"/>
	<stop  offset="0.0595" style="stop-color:#FFE029"/>
	<stop  offset="0.1303" style="stop-color:#FFD217"/>
	<stop  offset="0.2032" style="stop-color:#FEC90E"/>
	<stop  offset="0.2809" style="stop-color:#FDC70C"/>
	<stop  offset="0.6685" style="stop-color:#F3903F"/>
	<stop  offset="0.8876" style="stop-color:#ED683C"/>
	<stop  offset="1" style="stop-color:#E93E3A"/>
</linearGradient>
<path style="fill:url(#SVGID_00000168075332577974193680000012736702203243361161_);" d="M311.66,240.67
	c-11.56-23.92-18.21-29.94-28.95-43.92c-9.82-14.02-25.71-36.42-51.15-71.68C174.65,46.16,197.5,0,197.5,0
	c-117.72,63.49-24.48,154.53-24.48,154.53c4.97,6.33,11.02,12.98,17.53,19.93L230.63,220c13.03,17.81,22.39,36.92,21.55,57.15
	c-2.65,63.91-77.22,65.96-125.34,30.29c-40.35-29.91-39-86.24-37.51-103.65c-9.21,12.5-16.24,26.93-20.29,42.9
	c-16.8,66.16,23.22,133.42,89.38,150.21s130.11-37.99,150.21-89.38C312.54,297.58,321.62,261,311.66,240.67z"/>
<radialGradient id="SVGID_00000092420353892529409020000006480818984999351177_" cx="171.8992" cy="259.0766" r="88.3713" gradientUnits="userSpaceOnUse">
	<stop  offset="0" style="stop-color:#FFF33B"/>
	<stop  offset="0.1133" style="stop-color:#FFE029"/>
	<stop  offset="0.2482" style="stop-color:#FFD217"/>
	<stop  offset="0.3872" style="stop-color:#FEC90E"/>
	<stop  offset="0.5352" style="stop-color:#FDC70C"/>
	<stop  offset="0.7415" style="stop-color:#F3903F"/>
	<stop  offset="0.8661" style="stop-color:#ED683C"/>
	<stop  offset="0.9692" style="stop-color:#E93E3A"/>
</radialGradient>
<path style="fill:url(#SVGID_00000092420353892529409020000006480818984999351177_);" d="M89.74,203.56
	c0,0,15.79,130.52,108.19,95.88c67.12-25.16,2.17-112.3,1.56-114.83c0,0,109.32,95.53,23.82,139.91
	C153.95,360.53,74.34,282.31,89.74,203.56z"/>
</svg>
