<?xml version="1.0" encoding="utf-8"?>
<!-- Generator: Adobe Illustrator 26.5.0, SVG Export Plug-In . SVG Version: 6.00 Build 0)  -->
<svg version="1.1" id="Layer_1" xmlns="http://www.w3.org/2000/svg" xmlns:xlink="http://www.w3.org/1999/xlink" x="0px" y="0px"
	 viewBox="0 0 400 400" style="enable-background:new 0 0 400 400;" xml:space="preserve">
<style type="text/css">
	.st0{fill:url(#SVGID_1_);}
	.st1{fill:url(#SVGID_00000093145505250903928110000006670426858990537625_);}
	.st2{fill:#DF8B26;}
</style>
<linearGradient id="SVGID_1_" gradientUnits="userSpaceOnUse" x1="130.1336" y1="171.5121" x2="260.6897" y2="171.5121">
	<stop  offset="0" style="stop-color:#FFF33B"/>
	<stop  offset="0.0595" style="stop-color:#FFE029"/>
	<stop  offset="0.1303" style="stop-color:#FFD217"/>
	<stop  offset="0.2032" style="stop-color:#FEC90E"/>
	<stop  offset="0.2809" style="stop-color:#FDC70C"/>
	<stop  offset="0.6685" style="stop-color:#F3903F"/>
	<stop  offset="0.8876" style="stop-color:#ED683C"/>
	<stop  offset="1" style="stop-color:#E93E3A"/>
</linearGradient>
<path class="st0" d="M252.89,181.13L252.89,181.13c0,0-0.01-0.02-0.04-0.06c-2.2-4.09-4.85-7.93-7.87-11.47
	c-5.18-7.4-13.58-19.23-27.01-37.85c-30.05-41.66-17.99-66.04-17.99-66.04c-62.16,33.52-12.92,81.6-12.92,81.6
	c2.62,3.34,5.82,6.85,9.26,10.52l21.16,24.05c6.88,9.4,11.82,19.49,11.38,30.18c-1.4,33.75-40.77,34.83-66.18,15.99
	c-21.31-15.79-20.59-45.54-19.8-54.73c-4.87,6.6-8.57,14.22-10.71,22.65c-8.87,34.94,12.26,70.45,47.2,79.32
	c34.94,8.87,70.45-12.26,79.32-47.19C262.85,211.61,260.36,195.01,252.89,181.13z"/>
<linearGradient id="SVGID_00000118374190081031237230000018377521030321164179_" gradientUnits="userSpaceOnUse" x1="221.3461" y1="179.7845" x2="303.106" y2="179.7845">
	<stop  offset="0" style="stop-color:#FFF33B"/>
	<stop  offset="0.0595" style="stop-color:#FFE029"/>
	<stop  offset="0.1303" style="stop-color:#FFD217"/>
	<stop  offset="0.2032" style="stop-color:#FEC90E"/>
	<stop  offset="0.2809" style="stop-color:#FDC70C"/>
	<stop  offset="0.6685" style="stop-color:#F3903F"/>
	<stop  offset="0.8876" style="stop-color:#ED683C"/>
	<stop  offset="1" style="stop-color:#E93E3A"/>
</linearGradient>
<path style="fill:url(#SVGID_00000118374190081031237230000018377521030321164179_);" d="M221.35,103.67c0,0,5.11,26.06,27.41,45.19
	s44.46,72.11,19.52,107.04c0,0,43.08-23.38,33.42-56.35C292.04,166.58,228.06,124.27,221.35,103.67z"/>
<path class="st2" d="M143.08,173.2c0,0,8.34,68.92,57.13,50.63c35.44-13.28,17.8-40.74,17.48-42.07c0,0,33.49,35.5-4.07,55.31
	S134.95,214.78,143.08,173.2z"/>
<path class="st2" d="M221.35,103.67c0,0,3.44,9.96,11.13,21.33c11.66,17.24,31.62,40.55,52.42,59.58
	c34.53,31.58-16.62,71.32-16.62,71.32s18.1-36.53,7.57-55.9C261.11,172.89,214.43,117.92,221.35,103.67z"/>
</svg>
